M48
;Layer_Color=9474304
;FILE_FORMAT=4:4
METRIC,LZ
;TYPE=PLATED
T1F00S00C0.4064
T2F00S00C0.9000
T3F00S00C3.0000
%
T01
X008395Y00559
X0084475Y00598
X00825Y006965
X007595Y0063275
X0074675Y0061125
X0078025Y005975
X007445Y00561
X0076Y0054275
X0061025Y005375
X00539046Y00561796
X0048325Y0052475
X0042525Y007035
X0054225Y0076025
T02
X008866Y005338
Y005592
X00912
Y005846
Y0061
Y006354
Y006608
X008866
Y006354
Y0061
Y005846
X00912Y005338
X00707Y007096
Y00735
T03
X0092Y004775
Y0075
X0038
Y004775
M30
