G04 Layer_Color=16711935*
%FSLAX44Y44*%
%MOMM*%
G71*
G01*
G75*
%ADD31C,0.2540*%
%ADD44R,5.1032X1.8032*%
%ADD62C,1.7032*%
%ADD63R,1.7032X1.7032*%
%ADD64R,1.7032X1.7032*%
%ADD65C,3.2032*%
%ADD66C,0.9144*%
G04:AMPARAMS|DCode=67|XSize=1.4532mm|YSize=0.6232mm|CornerRadius=0.2066mm|HoleSize=0mm|Usage=FLASHONLY|Rotation=0.000|XOffset=0mm|YOffset=0mm|HoleType=Round|Shape=RoundedRectangle|*
%AMROUNDEDRECTD67*
21,1,1.4532,0.2100,0,0,0.0*
21,1,1.0400,0.6232,0,0,0.0*
1,1,0.4132,0.5200,-0.1050*
1,1,0.4132,-0.5200,-0.1050*
1,1,0.4132,-0.5200,0.1050*
1,1,0.4132,0.5200,0.1050*
%
%ADD67ROUNDEDRECTD67*%
D31*
X350000Y447000D02*
Y779000D01*
X950000D01*
Y447000D02*
Y779000D01*
X350000Y447000D02*
X950000D01*
D44*
X375750Y652500D02*
D03*
Y567500D02*
D03*
D62*
X912000Y660800D02*
D03*
Y635400D02*
D03*
Y610000D02*
D03*
Y584600D02*
D03*
Y559200D02*
D03*
X886600Y660800D02*
D03*
Y635400D02*
D03*
Y610000D02*
D03*
Y584600D02*
D03*
Y559200D02*
D03*
X912000Y533800D02*
D03*
X707000Y735000D02*
D03*
D63*
X886600Y533800D02*
D03*
D64*
X707000Y709600D02*
D03*
D65*
X380000Y750000D02*
D03*
Y477500D02*
D03*
X920000Y750000D02*
D03*
Y477500D02*
D03*
D66*
X744500Y561000D02*
D03*
X760000Y542750D02*
D03*
X539046Y561796D02*
D03*
X483250Y524750D02*
D03*
X425250Y703500D02*
D03*
X542250Y760250D02*
D03*
X610250Y537500D02*
D03*
X746750Y611250D02*
D03*
X759500Y632750D02*
D03*
X780250Y597500D02*
D03*
X844750Y598000D02*
D03*
X839500Y559000D02*
D03*
X825000Y696500D02*
D03*
D67*
X825700Y552000D02*
D03*
Y558500D02*
D03*
Y565000D02*
D03*
Y571500D02*
D03*
Y578000D02*
D03*
Y584500D02*
D03*
Y591000D02*
D03*
Y597500D02*
D03*
Y604000D02*
D03*
Y610500D02*
D03*
Y617000D02*
D03*
Y623500D02*
D03*
X760000Y552000D02*
D03*
Y558500D02*
D03*
Y565000D02*
D03*
Y571500D02*
D03*
Y578000D02*
D03*
Y584500D02*
D03*
Y591000D02*
D03*
Y597500D02*
D03*
Y604000D02*
D03*
Y610500D02*
D03*
Y617000D02*
D03*
Y623500D02*
D03*
M02*
