G04 Layer_Color=8388736*
%FSLAX44Y44*%
%MOMM*%
G71*
G01*
G75*
%ADD31C,0.2540*%
%ADD44R,5.1032X1.8032*%
%ADD45R,2.5532X0.9032*%
%ADD46R,1.2032X0.7532*%
%ADD47R,1.1032X0.7532*%
%ADD48R,1.6002X1.2192*%
%ADD49R,1.0532X0.8032*%
%ADD50R,1.2192X1.6002*%
%ADD51R,1.2032X1.7032*%
G04:AMPARAMS|DCode=52|XSize=1.2032mm|YSize=1.7032mm|CornerRadius=0.3516mm|HoleSize=0mm|Usage=FLASHONLY|Rotation=180.000|XOffset=0mm|YOffset=0mm|HoleType=Round|Shape=RoundedRectangle|*
%AMROUNDEDRECTD52*
21,1,1.2032,1.0000,0,0,180.0*
21,1,0.5000,1.7032,0,0,180.0*
1,1,0.7032,-0.2500,0.5000*
1,1,0.7032,0.2500,0.5000*
1,1,0.7032,0.2500,-0.5000*
1,1,0.7032,-0.2500,-0.5000*
%
%ADD52ROUNDEDRECTD52*%
%ADD53R,0.8032X0.8032*%
G04:AMPARAMS|DCode=54|XSize=0.8032mm|YSize=0.8032mm|CornerRadius=0.2516mm|HoleSize=0mm|Usage=FLASHONLY|Rotation=180.000|XOffset=0mm|YOffset=0mm|HoleType=Round|Shape=RoundedRectangle|*
%AMROUNDEDRECTD54*
21,1,0.8032,0.3000,0,0,180.0*
21,1,0.3000,0.8032,0,0,180.0*
1,1,0.5032,-0.1500,0.1500*
1,1,0.5032,0.1500,0.1500*
1,1,0.5032,0.1500,-0.1500*
1,1,0.5032,-0.1500,-0.1500*
%
%ADD54ROUNDEDRECTD54*%
%ADD55R,1.5032X3.2032*%
%ADD56R,1.4532X1.1032*%
%ADD57R,1.8032X1.1032*%
%ADD58R,1.5032X1.5032*%
%ADD59R,1.7032X1.2032*%
G04:AMPARAMS|DCode=60|XSize=1.2032mm|YSize=1.7032mm|CornerRadius=0.3516mm|HoleSize=0mm|Usage=FLASHONLY|Rotation=270.000|XOffset=0mm|YOffset=0mm|HoleType=Round|Shape=RoundedRectangle|*
%AMROUNDEDRECTD60*
21,1,1.2032,1.0000,0,0,270.0*
21,1,0.5000,1.7032,0,0,270.0*
1,1,0.7032,-0.5000,-0.2500*
1,1,0.7032,-0.5000,0.2500*
1,1,0.7032,0.5000,0.2500*
1,1,0.7032,0.5000,-0.2500*
%
%ADD60ROUNDEDRECTD60*%
%ADD61R,1.1032X1.4532*%
%ADD62C,1.7032*%
%ADD63R,1.7032X1.7032*%
%ADD64R,1.7032X1.7032*%
%ADD65C,3.2032*%
%ADD66C,0.9144*%
D31*
X350000Y447000D02*
Y779000D01*
X950000D01*
Y447000D02*
Y779000D01*
X350000Y447000D02*
X950000D01*
D44*
X375750Y652500D02*
D03*
Y567500D02*
D03*
D45*
X360000Y610000D02*
D03*
D46*
X540432Y672660D02*
D03*
Y663000D02*
D03*
X513000Y672660D02*
D03*
Y663000D02*
D03*
X540400Y653340D02*
D03*
X513000D02*
D03*
D47*
X521000Y561796D02*
D03*
X494108D02*
D03*
Y552398D02*
D03*
X521000Y543000D02*
D03*
X494108D02*
D03*
D48*
X740000Y720000D02*
D03*
Y739050D02*
D03*
X820000Y739000D02*
D03*
Y719950D02*
D03*
X672500Y738500D02*
D03*
Y719450D02*
D03*
X713000Y541000D02*
D03*
Y521950D02*
D03*
Y585000D02*
D03*
Y565950D02*
D03*
Y630050D02*
D03*
Y611000D02*
D03*
X590000Y732000D02*
D03*
Y712950D02*
D03*
X510000Y607950D02*
D03*
Y627000D02*
D03*
X567000Y627050D02*
D03*
Y608000D02*
D03*
X596000D02*
D03*
Y627050D02*
D03*
X538000Y607950D02*
D03*
Y627000D02*
D03*
X786000Y524000D02*
D03*
Y504950D02*
D03*
Y650000D02*
D03*
Y669050D02*
D03*
D49*
X790750Y729000D02*
D03*
X769250Y719500D02*
D03*
Y738500D02*
D03*
D50*
X446000Y720000D02*
D03*
X465050D02*
D03*
X682000Y522000D02*
D03*
X662950D02*
D03*
X682000Y582000D02*
D03*
X662950D02*
D03*
X520950Y698000D02*
D03*
X540000D02*
D03*
X590050Y537000D02*
D03*
X571000D02*
D03*
X590050Y508000D02*
D03*
X571000D02*
D03*
X494000Y507000D02*
D03*
X513050D02*
D03*
X465050Y523000D02*
D03*
X446000D02*
D03*
Y638000D02*
D03*
X465050D02*
D03*
X465000Y551000D02*
D03*
X445950D02*
D03*
X465000Y580000D02*
D03*
X445950D02*
D03*
X465000Y609000D02*
D03*
X445950D02*
D03*
X820000Y584000D02*
D03*
X800950D02*
D03*
X784000Y615000D02*
D03*
X803050D02*
D03*
D51*
X656940Y552000D02*
D03*
Y612000D02*
D03*
X794000Y556586D02*
D03*
D52*
X689040Y552000D02*
D03*
Y612000D02*
D03*
X826100Y556586D02*
D03*
D53*
X561000Y663000D02*
D03*
D54*
X585500D02*
D03*
D55*
X520250Y733000D02*
D03*
X552408D02*
D03*
D56*
X618000Y714000D02*
D03*
Y732000D02*
D03*
D57*
X445600Y498000D02*
D03*
Y470000D02*
D03*
X443600Y693000D02*
D03*
Y665000D02*
D03*
D58*
X469900Y484000D02*
D03*
X467900Y679000D02*
D03*
D59*
X758000Y498940D02*
D03*
X759000Y675000D02*
D03*
D60*
X758000Y531040D02*
D03*
X759000Y642900D02*
D03*
D61*
X835000Y653000D02*
D03*
X817000D02*
D03*
D62*
X912000Y660800D02*
D03*
Y635400D02*
D03*
Y610000D02*
D03*
Y584600D02*
D03*
Y559200D02*
D03*
X886600Y660800D02*
D03*
Y635400D02*
D03*
Y610000D02*
D03*
Y584600D02*
D03*
Y559200D02*
D03*
X912000Y533800D02*
D03*
X707000Y735000D02*
D03*
D63*
X886600Y533800D02*
D03*
D64*
X707000Y709600D02*
D03*
D65*
X380000Y750000D02*
D03*
Y477500D02*
D03*
X920000Y750000D02*
D03*
Y477500D02*
D03*
D66*
X744500Y561000D02*
D03*
X760000Y542750D02*
D03*
X539046Y561796D02*
D03*
X483250Y524750D02*
D03*
X425250Y703500D02*
D03*
X542250Y760250D02*
D03*
X610250Y537500D02*
D03*
X746750Y611250D02*
D03*
X759500Y632750D02*
D03*
X780250Y597500D02*
D03*
X844750Y598000D02*
D03*
X839500Y559000D02*
D03*
X825000Y696500D02*
D03*
M02*
