G04 Layer_Color=128*
%FSLAX44Y44*%
%MOMM*%
G71*
G01*
G75*
%ADD10R,4.9000X1.6000*%
%ADD31C,0.2540*%
G04:AMPARAMS|DCode=37|XSize=1.25mm|YSize=0.42mm|CornerRadius=0.105mm|HoleSize=0mm|Usage=FLASHONLY|Rotation=0.000|XOffset=0mm|YOffset=0mm|HoleType=Round|Shape=RoundedRectangle|*
%AMROUNDEDRECTD37*
21,1,1.2500,0.2100,0,0,0.0*
21,1,1.0400,0.4200,0,0,0.0*
1,1,0.2100,0.5200,-0.1050*
1,1,0.2100,-0.5200,-0.1050*
1,1,0.2100,-0.5200,0.1050*
1,1,0.2100,0.5200,0.1050*
%
%ADD37ROUNDEDRECTD37*%
D10*
X375750Y652500D02*
D03*
Y567500D02*
D03*
D31*
X350000Y447000D02*
Y779000D01*
X950000D01*
Y447000D02*
Y779000D01*
X350000Y447000D02*
X950000D01*
D37*
X825700Y552000D02*
D03*
Y558500D02*
D03*
Y565000D02*
D03*
Y571500D02*
D03*
Y578000D02*
D03*
Y584500D02*
D03*
Y591000D02*
D03*
Y597500D02*
D03*
Y604000D02*
D03*
Y610500D02*
D03*
Y617000D02*
D03*
Y623500D02*
D03*
X760000Y552000D02*
D03*
Y558500D02*
D03*
Y565000D02*
D03*
Y571500D02*
D03*
Y578000D02*
D03*
Y584500D02*
D03*
Y591000D02*
D03*
Y597500D02*
D03*
Y604000D02*
D03*
Y610500D02*
D03*
Y617000D02*
D03*
Y623500D02*
D03*
M02*
