G04 Layer_Physical_Order=2*
G04 Layer_Color=16711680*
%FSLAX44Y44*%
%MOMM*%
G71*
G01*
G75*
%ADD10R,4.9000X1.6000*%
%ADD28C,0.5080*%
%ADD29C,0.3048*%
%ADD31C,0.2540*%
%ADD32C,1.5000*%
%ADD33R,1.5000X1.5000*%
%ADD34R,1.5000X1.5000*%
%ADD35C,3.0000*%
%ADD36C,0.7112*%
G04:AMPARAMS|DCode=37|XSize=1.25mm|YSize=0.42mm|CornerRadius=0.105mm|HoleSize=0mm|Usage=FLASHONLY|Rotation=0.000|XOffset=0mm|YOffset=0mm|HoleType=Round|Shape=RoundedRectangle|*
%AMROUNDEDRECTD37*
21,1,1.2500,0.2100,0,0,0.0*
21,1,1.0400,0.4200,0,0,0.0*
1,1,0.2100,0.5200,-0.1050*
1,1,0.2100,-0.5200,-0.1050*
1,1,0.2100,-0.5200,0.1050*
1,1,0.2100,0.5200,0.1050*
%
%ADD37ROUNDEDRECTD37*%
%ADD38C,0.2032*%
G36*
X948750Y450626D02*
X947750Y448500D01*
X352797D01*
X351003Y450297D01*
X351165Y556960D01*
X374480D01*
Y567500D01*
Y578040D01*
X352994D01*
X351199Y579837D01*
X351294Y641960D01*
X374480D01*
Y652500D01*
Y663040D01*
X353123D01*
X351329Y664837D01*
X351500Y777750D01*
X948750D01*
Y450626D01*
D02*
G37*
%LPC*%
G36*
X768817Y596230D02*
X751183D01*
X751418Y595049D01*
X751952Y594250D01*
X751418Y593451D01*
X751183Y592270D01*
X768817D01*
X768582Y593451D01*
X768048Y594250D01*
X768582Y595049D01*
X768817Y596230D01*
D02*
G37*
G36*
Y589730D02*
X750959D01*
X750068Y588644D01*
X657250D01*
X655664Y588328D01*
X654320Y587430D01*
X610546Y543656D01*
X610250Y543715D01*
X607872Y543242D01*
X605855Y541895D01*
X604508Y539879D01*
X604035Y537500D01*
X604508Y535121D01*
X605855Y533105D01*
X607872Y531758D01*
X610250Y531285D01*
X612629Y531758D01*
X614645Y533105D01*
X615992Y535121D01*
X616465Y537500D01*
X616407Y537797D01*
X658966Y580356D01*
X750068D01*
X750959Y579270D01*
X768817D01*
X768582Y580451D01*
X768048Y581250D01*
X768582Y582049D01*
X768860Y583450D01*
Y585550D01*
X768582Y586951D01*
X768048Y587750D01*
X768582Y588549D01*
X768817Y589730D01*
D02*
G37*
G36*
Y576730D02*
X750959D01*
X750068Y575644D01*
X741250D01*
X741250Y575644D01*
X739664Y575328D01*
X738320Y574430D01*
X733820Y569930D01*
X732922Y568586D01*
X732606Y567000D01*
Y557250D01*
X732922Y555664D01*
X733820Y554320D01*
X739070Y549070D01*
X740414Y548172D01*
X742000Y547856D01*
X752968D01*
X753399Y547568D01*
X754134Y545480D01*
X754196Y544820D01*
X753785Y542750D01*
X754258Y540372D01*
X755605Y538355D01*
X757622Y537008D01*
X760000Y536535D01*
X762378Y537008D01*
X764395Y538355D01*
X765742Y540372D01*
X766215Y542750D01*
X765804Y544820D01*
X765866Y545480D01*
X766601Y547568D01*
X766831Y547722D01*
X767788Y548362D01*
X768582Y549549D01*
X768860Y550950D01*
Y553050D01*
X768582Y554451D01*
X768048Y555250D01*
X768582Y556049D01*
X768817Y557230D01*
X760000D01*
Y559770D01*
X768817D01*
X768582Y560951D01*
X768048Y561750D01*
X768582Y562549D01*
X768860Y563950D01*
Y566050D01*
X768582Y567451D01*
X768048Y568250D01*
X768582Y569049D01*
X768860Y570450D01*
Y572550D01*
X768582Y573951D01*
X768048Y574750D01*
X768582Y575549D01*
X768817Y576730D01*
D02*
G37*
G36*
X921960Y634130D02*
X913270D01*
Y625441D01*
X914621Y625618D01*
X917063Y626630D01*
X919161Y628239D01*
X920770Y630337D01*
X921782Y632779D01*
X921960Y634130D01*
D02*
G37*
G36*
X910730D02*
X902041D01*
X902218Y632779D01*
X903230Y630337D01*
X904839Y628239D01*
X906937Y626630D01*
X909379Y625618D01*
X910730Y625441D01*
Y634130D01*
D02*
G37*
G36*
X759500Y638965D02*
X757122Y638492D01*
X755105Y637145D01*
X753758Y635129D01*
X753285Y632750D01*
X753715Y630584D01*
X753712Y630058D01*
X753399Y627932D01*
X752823Y627547D01*
X752212Y627138D01*
X751418Y625951D01*
X751140Y624550D01*
Y622450D01*
X751418Y621049D01*
X751952Y620250D01*
X751418Y619451D01*
X751254Y618627D01*
X750077Y617722D01*
X749786Y617542D01*
X748600Y617098D01*
X746750Y617465D01*
X744371Y616992D01*
X742355Y615645D01*
X741008Y613629D01*
X740535Y611250D01*
X741008Y608871D01*
X742355Y606855D01*
X744371Y605508D01*
X746750Y605035D01*
X748674Y605417D01*
X748826Y605395D01*
X750248Y604556D01*
X751140Y603797D01*
Y602950D01*
X751418Y601549D01*
X751952Y600750D01*
X751418Y599951D01*
X751183Y598770D01*
X769041D01*
X769641Y599501D01*
X772303Y599587D01*
X774093Y597797D01*
X774035Y597500D01*
X774508Y595121D01*
X775855Y593105D01*
X777871Y591758D01*
X780250Y591285D01*
X782628Y591758D01*
X784645Y593105D01*
X785992Y595121D01*
X786465Y597500D01*
X785992Y599879D01*
X784645Y601895D01*
X782628Y603242D01*
X780250Y603715D01*
X779954Y603657D01*
X776680Y606930D01*
X775336Y607828D01*
X773750Y608144D01*
X769932D01*
X768860Y609450D01*
Y611550D01*
X768582Y612951D01*
X768048Y613750D01*
X768582Y614549D01*
X768817Y615730D01*
X760000D01*
Y618270D01*
X768817D01*
X768582Y619451D01*
X768048Y620250D01*
X768582Y621049D01*
X768860Y622450D01*
Y624550D01*
X768582Y625951D01*
X767788Y627138D01*
X766601Y627932D01*
X765399Y630089D01*
X765303Y630568D01*
X765309Y630705D01*
X765715Y632750D01*
X765242Y635129D01*
X763895Y637145D01*
X761879Y638492D01*
X759500Y638965D01*
D02*
G37*
G36*
X425250Y709715D02*
X422872Y709242D01*
X420855Y707895D01*
X419508Y705879D01*
X419035Y703500D01*
X419508Y701122D01*
X420855Y699105D01*
X422872Y697758D01*
X423865Y697560D01*
X478070Y643354D01*
Y527971D01*
X477508Y527128D01*
X477035Y524750D01*
X477508Y522371D01*
X478855Y520355D01*
X480872Y519008D01*
X483250Y518535D01*
X485629Y519008D01*
X487645Y520355D01*
X488992Y522371D01*
X489465Y524750D01*
X488992Y527128D01*
X488429Y527971D01*
Y645500D01*
X488035Y647482D01*
X486912Y649163D01*
X431190Y704885D01*
X430992Y705879D01*
X429645Y707895D01*
X427629Y709242D01*
X425250Y709715D01*
D02*
G37*
G36*
X920000Y495125D02*
X916562Y494786D01*
X913255Y493783D01*
X910208Y492155D01*
X907537Y489963D01*
X905346Y487292D01*
X903717Y484245D01*
X902714Y480938D01*
X902375Y477500D01*
X902714Y474062D01*
X903717Y470755D01*
X905346Y467708D01*
X907537Y465037D01*
X910208Y462845D01*
X913255Y461217D01*
X916562Y460214D01*
X920000Y459875D01*
X923438Y460214D01*
X926745Y461217D01*
X929792Y462845D01*
X932463Y465037D01*
X934654Y467708D01*
X936283Y470755D01*
X937286Y474062D01*
X937625Y477500D01*
X937286Y480938D01*
X936283Y484245D01*
X934654Y487292D01*
X932463Y489963D01*
X929792Y492155D01*
X926745Y493783D01*
X923438Y494786D01*
X920000Y495125D01*
D02*
G37*
G36*
X380000D02*
X376562Y494786D01*
X373255Y493783D01*
X370208Y492155D01*
X367537Y489963D01*
X365345Y487292D01*
X363717Y484245D01*
X362714Y480938D01*
X362375Y477500D01*
X362714Y474062D01*
X363717Y470755D01*
X365345Y467708D01*
X367537Y465037D01*
X370208Y462845D01*
X373255Y461217D01*
X376562Y460214D01*
X380000Y459875D01*
X383438Y460214D01*
X386745Y461217D01*
X389792Y462845D01*
X392463Y465037D01*
X394655Y467708D01*
X396283Y470755D01*
X397286Y474062D01*
X397625Y477500D01*
X397286Y480938D01*
X396283Y484245D01*
X394655Y487292D01*
X392463Y489963D01*
X389792Y492155D01*
X386745Y493783D01*
X383438Y494786D01*
X380000Y495125D01*
D02*
G37*
G36*
X402790Y578040D02*
X377020D01*
Y568770D01*
X402790D01*
Y578040D01*
D02*
G37*
G36*
Y566230D02*
X377020D01*
Y556960D01*
X402790D01*
Y566230D01*
D02*
G37*
G36*
X542250Y766465D02*
X539871Y765992D01*
X537855Y764645D01*
X536508Y762628D01*
X536310Y761635D01*
X535383Y760708D01*
X534261Y759028D01*
X533867Y757046D01*
Y565017D01*
X533304Y564174D01*
X532831Y561796D01*
X533304Y559417D01*
X534651Y557401D01*
X536668Y556054D01*
X539046Y555581D01*
X541424Y556054D01*
X543441Y557401D01*
X544788Y559417D01*
X545261Y561796D01*
X544788Y564174D01*
X544226Y565017D01*
Y754427D01*
X544629Y754508D01*
X546645Y755855D01*
X547992Y757871D01*
X548465Y760250D01*
X547992Y762628D01*
X546645Y764645D01*
X544629Y765992D01*
X542250Y766465D01*
D02*
G37*
G36*
X717040Y719640D02*
X696960D01*
Y699560D01*
X717040D01*
X717040Y699560D01*
Y699560D01*
X718775Y697900D01*
X723838Y692838D01*
X725518Y691715D01*
X727500Y691320D01*
X821779D01*
X822622Y690758D01*
X825000Y690285D01*
X827378Y690758D01*
X829395Y692105D01*
X830742Y694121D01*
X831215Y696500D01*
X830742Y698878D01*
X829395Y700895D01*
X827378Y702242D01*
X825000Y702715D01*
X822622Y702242D01*
X821779Y701680D01*
X729645D01*
X718063Y713262D01*
X717040Y713946D01*
Y719640D01*
D02*
G37*
G36*
X402790Y663040D02*
X377020D01*
Y653770D01*
X402790D01*
Y663040D01*
D02*
G37*
G36*
X912000Y670927D02*
X909379Y670582D01*
X906937Y669570D01*
X904839Y667961D01*
X903230Y665863D01*
X902218Y663421D01*
X901873Y660800D01*
X902218Y658179D01*
X903230Y655737D01*
X904839Y653639D01*
X906937Y652030D01*
X909379Y651018D01*
X912000Y650673D01*
X914621Y651018D01*
X917063Y652030D01*
X919161Y653639D01*
X920770Y655737D01*
X921782Y658179D01*
X922127Y660800D01*
X921782Y663421D01*
X920770Y665863D01*
X919161Y667961D01*
X917063Y669570D01*
X914621Y670582D01*
X912000Y670927D01*
D02*
G37*
G36*
X920000Y767625D02*
X916562Y767286D01*
X913255Y766283D01*
X910208Y764654D01*
X907537Y762463D01*
X905346Y759792D01*
X903717Y756745D01*
X902714Y753438D01*
X902375Y750000D01*
X902714Y746562D01*
X903717Y743255D01*
X905346Y740208D01*
X907537Y737537D01*
X910208Y735346D01*
X913255Y733717D01*
X916562Y732714D01*
X920000Y732375D01*
X923438Y732714D01*
X926745Y733717D01*
X929792Y735346D01*
X932463Y737537D01*
X934654Y740208D01*
X936283Y743255D01*
X937286Y746562D01*
X937625Y750000D01*
X937286Y753438D01*
X936283Y756745D01*
X934654Y759792D01*
X932463Y762463D01*
X929792Y764654D01*
X926745Y766283D01*
X923438Y767286D01*
X920000Y767625D01*
D02*
G37*
G36*
X380000D02*
X376562Y767286D01*
X373255Y766283D01*
X370208Y764654D01*
X367537Y762463D01*
X365345Y759792D01*
X363717Y756745D01*
X362714Y753438D01*
X362375Y750000D01*
X362714Y746562D01*
X363717Y743255D01*
X365345Y740208D01*
X367537Y737537D01*
X370208Y735346D01*
X373255Y733717D01*
X376562Y732714D01*
X380000Y732375D01*
X383438Y732714D01*
X386745Y733717D01*
X389792Y735346D01*
X392463Y737537D01*
X394655Y740208D01*
X396283Y743255D01*
X397286Y746562D01*
X397625Y750000D01*
X397286Y753438D01*
X396283Y756745D01*
X394655Y759792D01*
X392463Y762463D01*
X389792Y764654D01*
X386745Y766283D01*
X383438Y767286D01*
X380000Y767625D01*
D02*
G37*
G36*
X707000Y745127D02*
X704379Y744782D01*
X701937Y743770D01*
X699839Y742161D01*
X698230Y740063D01*
X697218Y737621D01*
X696873Y735000D01*
X697218Y732379D01*
X698230Y729937D01*
X699839Y727839D01*
X701937Y726230D01*
X704379Y725218D01*
X707000Y724873D01*
X709621Y725218D01*
X712063Y726230D01*
X714161Y727839D01*
X715770Y729937D01*
X716782Y732379D01*
X717127Y735000D01*
X716782Y737621D01*
X715770Y740063D01*
X714161Y742161D01*
X712063Y743770D01*
X709621Y744782D01*
X707000Y745127D01*
D02*
G37*
G36*
X886600Y670927D02*
X883979Y670582D01*
X881537Y669570D01*
X879439Y667961D01*
X877830Y665863D01*
X876818Y663421D01*
X876473Y660800D01*
X876818Y658179D01*
X877830Y655737D01*
X879439Y653639D01*
X881537Y652030D01*
X883979Y651018D01*
X886600Y650673D01*
X889221Y651018D01*
X891663Y652030D01*
X893761Y653639D01*
X895370Y655737D01*
X896382Y658179D01*
X896727Y660800D01*
X896382Y663421D01*
X895370Y665863D01*
X893761Y667961D01*
X891663Y669570D01*
X889221Y670582D01*
X886600Y670927D01*
D02*
G37*
G36*
X887870Y645359D02*
Y636670D01*
X896560D01*
X896382Y638021D01*
X895370Y640463D01*
X893761Y642561D01*
X891663Y644170D01*
X889221Y645182D01*
X887870Y645359D01*
D02*
G37*
G36*
X910730D02*
X909379Y645182D01*
X906937Y644170D01*
X904839Y642561D01*
X903230Y640463D01*
X902218Y638021D01*
X902041Y636670D01*
X910730D01*
Y645359D01*
D02*
G37*
G36*
X885330D02*
X883979Y645182D01*
X881537Y644170D01*
X879439Y642561D01*
X877830Y640463D01*
X876818Y638021D01*
X876641Y636670D01*
X885330D01*
Y645359D01*
D02*
G37*
G36*
X402790Y651230D02*
X377020D01*
Y641960D01*
X402790D01*
Y651230D01*
D02*
G37*
G36*
X859750Y639376D02*
X859750Y639376D01*
X845500D01*
X845500Y639376D01*
X844112Y639100D01*
X842936Y638314D01*
X842936Y638314D01*
X832453Y627830D01*
X832301Y627932D01*
X830900Y628210D01*
X820500D01*
X819099Y627932D01*
X817912Y627138D01*
X817118Y625951D01*
X816840Y624550D01*
Y622450D01*
X817118Y621049D01*
X817652Y620250D01*
X817118Y619451D01*
X816840Y618050D01*
Y615950D01*
X817118Y614549D01*
X817652Y613750D01*
X817118Y612951D01*
X816840Y611550D01*
Y609450D01*
X817118Y608049D01*
X817652Y607250D01*
X817118Y606451D01*
X816840Y605050D01*
Y602950D01*
X817118Y601549D01*
X817652Y600750D01*
X817118Y599951D01*
X816883Y598770D01*
X825700D01*
Y596230D01*
X816883D01*
X817118Y595049D01*
X817652Y594250D01*
X817118Y593451D01*
X816840Y592050D01*
Y589950D01*
X817118Y588549D01*
X817652Y587750D01*
X817118Y586951D01*
X816840Y585550D01*
Y583450D01*
X817118Y582049D01*
X817652Y581250D01*
X817118Y580451D01*
X816840Y579050D01*
Y576950D01*
X817118Y575549D01*
X817652Y574750D01*
X817118Y573951D01*
X816840Y572550D01*
Y570450D01*
X817118Y569049D01*
X817652Y568250D01*
X817118Y567451D01*
X816840Y566050D01*
Y563950D01*
X817118Y562549D01*
X817652Y561750D01*
X817118Y560951D01*
X816840Y559550D01*
Y557450D01*
X817118Y556049D01*
X817652Y555250D01*
X817118Y554451D01*
X816840Y553050D01*
Y550950D01*
X817118Y549549D01*
X817912Y548362D01*
X819099Y547568D01*
X820500Y547290D01*
X830900D01*
X832301Y547568D01*
X833488Y548362D01*
X835343Y546779D01*
X837793Y544330D01*
X837793Y544330D01*
X840307Y541815D01*
X840307Y541815D01*
X841483Y541030D01*
X842871Y540754D01*
X844448Y538477D01*
X844550Y537963D01*
X845336Y536786D01*
X850365Y531758D01*
X850365Y531758D01*
X850886Y531236D01*
X850886Y531236D01*
X852063Y530450D01*
X853450Y530174D01*
X857006D01*
X857952Y530363D01*
X859607Y529495D01*
X860492Y528798D01*
Y522944D01*
X860768Y521557D01*
X861554Y520381D01*
X862730Y519595D01*
X864118Y519319D01*
X871230D01*
X872617Y519595D01*
X873794Y520381D01*
X874580Y521557D01*
X874694Y522133D01*
X876560Y523760D01*
X896640D01*
Y538714D01*
X898987Y539686D01*
X902228Y536444D01*
X902218Y536421D01*
X901873Y533800D01*
X902218Y531179D01*
X903230Y528737D01*
X904839Y526639D01*
X906937Y525030D01*
X909379Y524018D01*
X912000Y523673D01*
X914621Y524018D01*
X917063Y525030D01*
X919161Y526639D01*
X920770Y528737D01*
X921782Y531179D01*
X922127Y533800D01*
X921782Y536421D01*
X920770Y538863D01*
X919161Y540961D01*
X917063Y542570D01*
X914621Y543582D01*
X912000Y543927D01*
X909379Y543582D01*
X906937Y542570D01*
X906609Y542318D01*
X900114Y548814D01*
X898938Y549600D01*
X897550Y549876D01*
X897550Y549876D01*
X895113D01*
X894419Y550986D01*
X894050Y552416D01*
X895370Y554137D01*
X896382Y556579D01*
X896727Y559200D01*
X896382Y561821D01*
X895522Y563895D01*
X895648Y564825D01*
X896627Y566797D01*
X896976Y566886D01*
X897289Y566784D01*
X902228Y561844D01*
X902218Y561821D01*
X901873Y559200D01*
X902218Y556579D01*
X903230Y554137D01*
X904839Y552039D01*
X906937Y550430D01*
X909379Y549418D01*
X912000Y549073D01*
X914621Y549418D01*
X917063Y550430D01*
X919161Y552039D01*
X920770Y554137D01*
X921782Y556579D01*
X922127Y559200D01*
X921782Y561821D01*
X920770Y564263D01*
X919161Y566361D01*
X917063Y567970D01*
X914621Y568982D01*
X912000Y569327D01*
X909379Y568982D01*
X906937Y567970D01*
X906609Y567718D01*
X899764Y574564D01*
X898587Y575350D01*
X897200Y575626D01*
X897200Y575626D01*
X895423D01*
X895230Y575836D01*
X894318Y578166D01*
X895370Y579537D01*
X896382Y581979D01*
X896727Y584600D01*
X896382Y587221D01*
X895714Y588833D01*
X896556Y591064D01*
X897050Y591647D01*
X897710Y591763D01*
X902228Y587244D01*
X902218Y587221D01*
X901873Y584600D01*
X902218Y581979D01*
X903230Y579537D01*
X904839Y577439D01*
X906937Y575830D01*
X909379Y574818D01*
X912000Y574473D01*
X914621Y574818D01*
X917063Y575830D01*
X919161Y577439D01*
X920770Y579537D01*
X921782Y581979D01*
X922127Y584600D01*
X921782Y587221D01*
X920770Y589663D01*
X919161Y591761D01*
X917063Y593370D01*
X914621Y594382D01*
X912000Y594727D01*
X909379Y594382D01*
X906937Y593370D01*
X906609Y593118D01*
X900164Y599564D01*
X898988Y600350D01*
X897600Y600626D01*
X897600Y600626D01*
X895048D01*
X894320Y601879D01*
X894011Y603166D01*
X895370Y604937D01*
X896382Y607379D01*
X896727Y610000D01*
X896382Y612621D01*
X895370Y615063D01*
X895127Y615381D01*
X896145Y618226D01*
X896552Y618321D01*
X902228Y612644D01*
X902218Y612621D01*
X901873Y610000D01*
X902218Y607379D01*
X903230Y604937D01*
X904839Y602839D01*
X906937Y601230D01*
X909379Y600218D01*
X912000Y599873D01*
X914621Y600218D01*
X917063Y601230D01*
X919161Y602839D01*
X920770Y604937D01*
X921782Y607379D01*
X922127Y610000D01*
X921782Y612621D01*
X920770Y615063D01*
X919161Y617161D01*
X917063Y618770D01*
X914621Y619782D01*
X912000Y620127D01*
X909379Y619782D01*
X906937Y618770D01*
X906609Y618518D01*
X899064Y626064D01*
X897887Y626850D01*
X896500Y627126D01*
X896500Y627126D01*
X896108D01*
X894855Y629666D01*
X895370Y630337D01*
X896382Y632779D01*
X896560Y634130D01*
X886600D01*
X876641D01*
X876818Y632779D01*
X877830Y630337D01*
X878345Y629666D01*
X877093Y627126D01*
X873502D01*
X862314Y638314D01*
X861137Y639100D01*
X859750Y639376D01*
D02*
G37*
G36*
X913270Y645359D02*
Y636670D01*
X921960D01*
X921782Y638021D01*
X920770Y640463D01*
X919161Y642561D01*
X917063Y644170D01*
X914621Y645182D01*
X913270Y645359D01*
D02*
G37*
%LPD*%
D10*
X375750Y652500D02*
D03*
Y567500D02*
D03*
D28*
X425250Y703500D02*
X483250Y645500D01*
Y524750D02*
Y645500D01*
X539046Y561796D02*
Y757046D01*
X542250Y760250D01*
X707000Y709600D02*
X714400D01*
X727500Y696500D01*
X825000D01*
D29*
X742000Y552000D02*
X760000D01*
X736750Y557250D02*
X742000Y552000D01*
X736750Y557250D02*
Y567000D01*
X741250Y571500D01*
X760000D01*
X744500Y561000D02*
X748500Y565000D01*
X760000D01*
Y542500D02*
Y542750D01*
Y552000D01*
X657250Y584500D02*
X760000D01*
X610250Y537500D02*
X657250Y584500D01*
X747500Y610500D02*
X760000D01*
X746750Y611250D02*
X747500Y610500D01*
X759500Y624000D02*
Y632750D01*
Y624000D02*
X760000Y623500D01*
Y604000D02*
X773750D01*
X780250Y597500D01*
X825700Y591000D02*
X837750D01*
X844750Y598000D01*
X825700Y558500D02*
X839250D01*
X839250Y558500D01*
D31*
X350000Y447000D02*
Y779000D01*
X950000D01*
Y447000D02*
Y779000D01*
X350000Y447000D02*
X950000D01*
D32*
X912000Y660800D02*
D03*
Y635400D02*
D03*
Y610000D02*
D03*
Y584600D02*
D03*
Y559200D02*
D03*
X886600Y660800D02*
D03*
Y635400D02*
D03*
Y610000D02*
D03*
Y584600D02*
D03*
Y559200D02*
D03*
X912000Y533800D02*
D03*
X707000Y735000D02*
D03*
D33*
X886600Y533800D02*
D03*
D34*
X707000Y709600D02*
D03*
D35*
X380000Y750000D02*
D03*
Y477500D02*
D03*
X920000Y750000D02*
D03*
Y477500D02*
D03*
D36*
X744500Y561000D02*
D03*
X760000Y542750D02*
D03*
X539046Y561796D02*
D03*
X483250Y524750D02*
D03*
X425250Y703500D02*
D03*
X542250Y760250D02*
D03*
X610250Y537500D02*
D03*
X746750Y611250D02*
D03*
X759500Y632750D02*
D03*
X780250Y597500D02*
D03*
X844750Y598000D02*
D03*
X839500Y559000D02*
D03*
X825000Y696500D02*
D03*
D37*
X825700Y552000D02*
D03*
Y558500D02*
D03*
Y565000D02*
D03*
Y571500D02*
D03*
Y578000D02*
D03*
Y584500D02*
D03*
Y591000D02*
D03*
Y597500D02*
D03*
Y604000D02*
D03*
Y610500D02*
D03*
Y617000D02*
D03*
Y623500D02*
D03*
X760000Y552000D02*
D03*
Y558500D02*
D03*
Y565000D02*
D03*
Y571500D02*
D03*
Y578000D02*
D03*
Y584500D02*
D03*
Y591000D02*
D03*
Y597500D02*
D03*
Y604000D02*
D03*
Y610500D02*
D03*
Y617000D02*
D03*
Y623500D02*
D03*
D38*
X897600Y597000D02*
X910000Y584600D01*
X887250Y597000D02*
X897600D01*
X885168D02*
X887250D01*
X885168Y595572D02*
Y597000D01*
X878056Y595572D02*
X885168D01*
X878056D02*
Y597000D01*
X874500D02*
X878056D01*
X861000Y610500D02*
X874500Y597000D01*
X825700Y610500D02*
X843350D01*
X854018D02*
X861000D01*
X854018D02*
Y611516D01*
X846906D02*
X854018D01*
X846906Y610500D02*
Y611516D01*
X843350Y610500D02*
X846906D01*
X875750Y610000D02*
X884600D01*
X868750Y617000D02*
X875750Y610000D01*
X865750Y617000D02*
X868750D01*
X825700D02*
X837750D01*
X862642D02*
X865750D01*
X862642D02*
Y626418D01*
X855530D02*
X862642D01*
X855530Y617000D02*
Y626418D01*
Y615477D02*
Y617000D01*
X848418Y615477D02*
X855530D01*
X848418D02*
Y617000D01*
Y625117D01*
X841306D02*
X848418D01*
X841306Y617000D02*
Y625117D01*
X837750Y617000D02*
X841306D01*
X859750Y635750D02*
X872000Y623500D01*
X845500Y635750D02*
X859750D01*
X833250Y623500D02*
X845500Y635750D01*
X872000Y623500D02*
X896500D01*
X825700D02*
X833250D01*
X896500D02*
X910000Y610000D01*
X873400Y584600D02*
X884600D01*
X872750Y585250D02*
X873400Y584600D01*
X870101Y587899D02*
X872750Y585250D01*
X870101Y587899D02*
X873717Y591515D01*
X868688Y596544D02*
X873717Y591515D01*
X865072Y592928D02*
X868688Y596544D01*
X860813Y588669D02*
X865072Y592928D01*
X855784Y593698D02*
X860813Y588669D01*
X855784Y593698D02*
X860043Y597957D01*
X863389Y601302D01*
X858360Y606331D02*
X863389Y601302D01*
X855014Y602985D02*
X858360Y606331D01*
X852500Y605500D02*
X855014Y602985D01*
X840750Y605500D02*
X852500D01*
X839250Y604000D02*
X840750Y605500D01*
X825700Y604000D02*
X839250D01*
X897200Y572000D02*
X910000Y559200D01*
X874000Y572000D02*
X897200D01*
X861500Y584500D02*
X874000Y572000D01*
X853000Y584500D02*
X861500D01*
X825700D02*
X841250D01*
X851918D02*
X853000D01*
X851918D02*
Y587068D01*
X844806D02*
X851918D01*
X844806Y584500D02*
Y587068D01*
X841250Y584500D02*
X844806D01*
X870050Y559200D02*
X884600D01*
X866750Y562500D02*
X870050Y559200D01*
X863822Y565428D02*
X866750Y562500D01*
X863822Y565428D02*
X868915Y570520D01*
X863886Y575549D02*
X868915Y570520D01*
X858793Y570457D02*
X863886Y575549D01*
X853451Y565114D02*
X858793Y570457D01*
X848422Y570143D02*
X853451Y565114D01*
X848422Y570143D02*
X853764Y575485D01*
X851250Y578000D02*
X853764Y575485D01*
X825700Y578000D02*
X837000D01*
X847668D02*
X851250D01*
X847668D02*
Y579858D01*
X840556D02*
X847668D01*
X840556Y578000D02*
Y579858D01*
X837000Y578000D02*
X840556D01*
X871230Y533800D02*
X875760D01*
X871230Y522944D02*
Y533800D01*
X864118Y522944D02*
X871230D01*
X864118D02*
Y533800D01*
Y537386D01*
X857006D02*
X864118D01*
X857006Y533800D02*
Y537386D01*
X853450Y533800D02*
X857006D01*
X852929Y534321D02*
X853450Y533800D01*
X847900Y539350D02*
X852929Y534321D01*
X847900Y539350D02*
X849524Y540975D01*
X844495Y546003D02*
X849524Y540975D01*
X842871Y544379D02*
X844495Y546003D01*
X840356Y546894D02*
X842871Y544379D01*
X875760Y533800D02*
X884600D01*
X835250Y552000D02*
X840356Y546894D01*
X825700Y552000D02*
X835250D01*
X825700Y571500D02*
X840500D01*
X865750Y546250D01*
X897550D01*
X910000Y533800D01*
M02*
